<?xml version="1.0" standalone="no"?>
<!DOCTYPE svg PUBLIC "-//W3C//DTD SVG 20010904//EN"
 "http://www.w3.org/TR/2001/REC-SVG-20010904/DTD/svg10.dtd">
<svg version="1.0" xmlns="http://www.w3.org/2000/svg"
 width="649.000000pt" height="238.000000pt" viewBox="0 0 649.000000 238.000000"
 preserveAspectRatio="xMidYMid meet">
<metadata>
Created by potrace 1.15, written by Peter Selinger 2001-2017
</metadata>
<g transform="translate(0.000000,238.000000) scale(0.100000,-0.100000)"
fill="#000000" stroke="none">
<path d="M3110 1705 c-8 -10 -11 -40 -8 -91 3 -69 6 -79 31 -100 18 -16 41
-24 64 -24 38 0 93 33 93 56 0 8 10 14 26 14 20 0 25 4 20 16 -3 9 -6 20 -6
25 0 5 -7 9 -16 9 -9 0 -29 11 -46 25 -36 30 -71 32 -98 5 l-20 -20 0 25 0 25
335 0 335 0 0 -27 c0 -16 -4 -23 -8 -17 -9 15 -47 34 -66 34 -8 0 -28 -11 -44
-25 -17 -14 -42 -25 -56 -25 -21 0 -26 -5 -26 -25 0 -20 5 -25 25 -25 17 0 36
-12 56 -35 39 -44 92 -48 136 -11 25 21 28 31 31 100 3 51 0 81 -8 91 -11 13
-67 15 -375 15 -308 0 -364 -2 -375 -15z"/>
<path d="M597 1695 c-94 -36 -190 -143 -202 -228 -4 -23 -5 -139 -3 -257 3
-243 8 -261 89 -340 70 -68 118 -85 239 -85 90 0 111 3 147 23 97 51 160 139
170 237 l6 55 -75 0 -75 0 -12 -40 c-24 -80 -87 -130 -166 -130 -75 0 -145 51
-165 121 -13 44 -13 344 0 388 20 70 90 121 165 121 79 0 142 -50 166 -130
l12 -40 75 0 75 0 -6 55 c-10 98 -76 188 -177 241 -47 24 -209 30 -263 9z"/>
<path d="M1327 1695 c-93 -34 -189 -143 -202 -228 -4 -23 -5 -139 -3 -257 3
-243 8 -261 89 -340 69 -67 119 -85 234 -85 116 0 166 18 234 86 79 80 86 104
89 357 4 276 -1 297 -92 388 -43 42 -76 66 -110 77 -60 21 -185 21 -239 2z
m191 -149 c37 -19 68 -55 87 -98 22 -53 22 -353 0 -406 -31 -73 -86 -112 -160
-112 -75 0 -145 51 -165 121 -13 44 -13 344 0 388 27 95 153 151 238 107z"/>
<path d="M2067 1695 c-93 -34 -189 -143 -202 -228 -4 -23 -5 -139 -3 -257 3
-243 8 -261 89 -340 69 -67 119 -85 234 -85 116 0 166 18 234 86 79 80 86 104
89 357 4 276 -1 297 -92 388 -43 42 -76 66 -110 77 -60 21 -185 21 -239 2z
m191 -149 c37 -19 68 -55 87 -98 22 -53 22 -353 0 -406 -31 -73 -86 -112 -160
-112 -75 0 -145 51 -165 121 -13 44 -13 344 0 388 27 95 153 151 238 107z"/>
<path d="M2600 1245 l0 -445 275 0 275 0 0 70 0 70 -200 0 -200 0 0 375 0 375
-75 0 -75 0 0 -445z"/>
<path d="M3942 1333 c3 -393 2 -384 88 -470 62 -63 120 -87 217 -91 117 -6
171 14 249 92 93 94 94 97 94 488 l0 328 -75 0 -75 0 0 -305 c0 -253 -3 -312
-15 -343 -31 -73 -86 -112 -160 -112 -75 0 -145 51 -165 121 -6 19 -10 169
-10 336 l0 303 -75 0 -76 0 3 -347z"/>
<path d="M4680 1235 l0 -445 75 0 75 0 0 150 0 150 70 0 70 0 75 -150 75 -150
90 0 90 0 -86 164 -85 165 46 46 c66 66 90 122 89 215 0 94 -28 163 -91 221
-79 72 -103 79 -310 79 l-183 0 0 -445z m308 294 c35 -7 59 -20 83 -45 31 -32
34 -40 34 -99 0 -59 -3 -67 -34 -99 -38 -39 -94 -56 -186 -56 l-55 0 0 155 0
155 55 0 c29 0 76 -5 103 -11z"/>
<path d="M5601 1638 c-7 -24 -60 -224 -120 -445 l-108 -403 83 0 82 0 11 48
c7 26 16 64 22 85 l10 37 152 0 153 0 12 -47 c7 -27 17 -65 23 -85 l10 -38 80
0 c61 0 80 3 77 13 -3 6 -56 207 -119 444 l-114 433 -121 0 -121 0 -12 -42z
m188 -324 c28 -105 51 -196 51 -203 0 -7 -34 -11 -111 -11 -100 0 -110 2 -105
18 3 9 26 94 51 187 54 202 56 207 60 203 1 -2 26 -89 54 -194z"/>
<path d="M3387 1554 c-4 -4 -7 -134 -7 -290 0 -226 3 -283 13 -287 35 -13 37
4 35 294 -3 247 -5 284 -18 287 -9 1 -19 0 -23 -4z"/>
<path d="M3465 1548 c-3 -7 -4 -139 -3 -293 3 -241 5 -280 18 -280 13 0 15 39
15 289 0 223 -3 290 -12 293 -7 3 -15 -1 -18 -9z"/>
<path d="M3537 1554 c-11 -11 -8 -572 2 -578 5 -4 16 -3 25 0 15 6 16 37 14
292 -3 250 -5 287 -18 290 -9 1 -19 0 -23 -4z"/>
<path d="M3339 919 c-32 -34 -43 -63 -37 -100 l3 -24 183 -3 182 -2 0 43 c0
42 -17 79 -48 105 -11 8 -55 12 -135 12 l-119 0 -29 -31z"/>
</g>
</svg>
